<svg xmlns="http://www.w3.org/2000/svg" viewBox="0 0 413.23 120.93">
  <g id="Capa_2" data-name="Capa 2">
    <g id="Capa_1-2" data-name="Capa 1">
      <g>
        <path d="M117,59.93c0,9.3-.09,18.59,0,27.89,0,3.43-1.21,5.67-4.3,7.19q-25.36,12.43-50.66,25a7.71,7.71,0,0,1-7.37-.09q-25-12.33-50.06-24.49C1.58,94,0,91.9,0,88.23Q.23,59.7,0,31.17c0-3.49,1.34-5.47,4.3-6.83Q24.57,15,44.82,5.63C48.26,4,51.73,2.53,55.12.86A6.92,6.92,0,0,1,61.53.72Q87,12.41,112.47,23.93c3.41,1.54,4.56,4.07,4.54,7.6-.07,9.47,0,18.93,0,28.4ZM9.74,62.18c0,7.49,0,15,0,22.47A3.25,3.25,0,0,0,11.78,88q19.86,9.61,39.64,19.38c2.1,1,2.43.44,2.42-1.61q-.09-22.22,0-44.42a3.49,3.49,0,0,0-2.18-3.63Q31.82,48.09,12.06,38.25c-1.84-.91-2.37-.6-2.35,1.46C9.78,47.2,9.74,54.69,9.74,62.18ZM63.48,83.47c0,7.48,0,15,0,22.45,0,2,.35,2.45,2.29,1.48Q85.35,97.62,105.05,88a3.27,3.27,0,0,0,2.09-3.39c0-14.88,0-29.76,0-44.64,0-2.73-.11-2.79-2.56-1.57-13,6.49-26,13-39,19.47a3.3,3.3,0,0,0-2.1,3.39C63.52,68.67,63.48,76.07,63.48,83.47Zm-46.94-54a12.17,12.17,0,0,0,1.25.86C31,36.76,44.25,43.16,57.45,49.65c1.43.7,2.43.21,3.6-.37L93.2,33.37c2.43-1.21,4.84-2.47,7.42-3.8a6.29,6.29,0,0,0-.83-.58C86.49,22.92,73.18,16.88,59.9,10.77a3.69,3.69,0,0,0-3.41.27C51,13.6,45.39,16.13,39.85,18.68Z"/>
        <path d="M141.55,72.68a15.59,15.59,0,0,0,1.81,0c2.47-.29,3.92.37,5,3,2.58,6.5,12.29,8.33,17.5,3.59a6.82,6.82,0,0,0-.69-10.9c-2.53-1.73-5.5-2.38-8.41-3.12-4.25-1.08-8.53-2.12-12.24-4.62-5.25-3.52-7.56-8.64-7.3-14.79.28-6.5,3.2-11.63,9.32-14.33a25.14,25.14,0,0,1,22.41.46c5.43,2.75,8.33,7.51,9.69,13.32.41,1.75-.12,2.63-2,2.42a16.33,16.33,0,0,0-2.32,0c-3.52.16-6.43.32-8.39-4.08C163.77,39,155.77,38,151.46,41A6.48,6.48,0,0,0,151,51.29a13.64,13.64,0,0,0,6,2.77c4.31,1.16,8.67,2.2,12.7,4.22,8.19,4.13,11.7,11.81,9.45,20.66a14.73,14.73,0,0,1-8.4,9.92c-9.24,4.33-18.35,3.86-27.06-1.56-4.31-2.69-6.72-6.76-8-11.61-.53-2-.2-3.2,2.22-3C139.14,72.76,140.35,72.69,141.55,72.68Z"/>
        <path d="M315.06,71.72c0,5.23-.12,10.47.05,15.7.08,2.46-.88,3.21-3.15,3a44.41,44.41,0,0,0-5.16,0c-1.94.1-2.92-.63-2.79-2.67.08-1.12,0-2.24,0-3.36V31.24c0-3.41,0-3.41,3.49-3.42,1.63,0,3.28.1,4.9,0,2-.14,2.69.7,2.68,2.7-.07,9.55,0,19.11,0,28.66v5.74c4.11-4.74,8-8.78,11.33-13.2,2.47-3.24,5.17-5,9.33-4.35a33.6,33.6,0,0,0,4.38.06c.65,0,1.53-.27,1.88.44.43.88-.48,1.37-1,1.92-4.64,5.31-9.25,10.66-14,15.87-1.27,1.4-1.17,2.23-.06,3.64,4.92,6.19,9.73,12.48,14.55,18.76.43.56,1.4,1.07.91,1.92s-1.41.43-2.15.46c-9.93.27-9.93.27-16.06-7.64l-8.65-11.22Z"/>
        <path d="M367.88,72c-4.22,0-8.43.1-12.64,0-2.18-.07-2.5.77-1.95,2.59,1.17,3.9,3.45,6.79,7.55,7.68,3.81.82,7.42.33,10-3A3.47,3.47,0,0,1,374,77.87c2,0,4,.11,5.93,0,2.14-.13,2.61.53,1.66,2.49a18.13,18.13,0,0,1-13,10.42c-8.6,1.83-16.19.15-22.08-6.91S339.87,60.28,348,52.62a20.24,20.24,0,0,1,20.27-5.08c7.51,2.05,11.94,7.51,13.83,15a54.4,54.4,0,0,1,1,7.13c.19,1.68-.44,2.49-2.33,2.44-4.3-.12-8.6,0-12.9,0Zm-5.21-7.6c2.23,0,4.47,0,6.71,0,2.63,0,2.82-.32,1.93-2.84a8.94,8.94,0,0,0-8.95-6.08,9.44,9.44,0,0,0-8.86,6.68c-.46,1.58,0,2.28,1.68,2.25C357.67,64.38,360.17,64.41,362.67,64.41Z"/>
        <path d="M211.87,68.93c-.61-13.49,10.45-22.35,21.95-22.13,12.37.24,21.49,9.41,21.56,22.15.08,12.9-9.14,22.56-21.79,22.5C220.18,91.38,211.15,80.61,211.87,68.93Zm10.7.2A13.55,13.55,0,0,0,224.79,77a10.3,10.3,0,0,0,16.73,1c3.51-4.23,3.94-11.92.92-16.5a10.5,10.5,0,0,0-16.83-1.36A12.9,12.9,0,0,0,222.57,69.13Z"/>
        <path d="M294.24,63.22c-1.2,0-2.41,0-3.61,0a2.27,2.27,0,0,1-2.31-1.28c-2.19-4.29-5.72-6.11-10.43-5.26-4.21.77-7.4,4.58-8.16,9.61a16.94,16.94,0,0,0,.68,8.4c1.34,3.68,3.77,6.18,7.74,6.72,4.12.57,7.74-.36,10-4.28a2.81,2.81,0,0,1,2.67-1.64c2.41,0,4.82,0,7.23,0,1.78,0,1.93.77,1.44,2.28A19.59,19.59,0,0,1,279.2,91.35C267,90.64,259.39,83,258.57,70.24c-.72-11.17,6.24-21.06,17.14-23.07,11.5-2.11,20.48,3.73,23.38,13,.91,2.88.75,3.06-2.27,3.09Z"/>
        <path d="M189.16,69.74c0-3.43-.07-6.88,0-10.31,0-1.74-.49-2.63-2.34-2.42-.51.05-1-.06-1.55,0-2.33.31-3.12-.81-2.85-3a11.1,11.1,0,0,0,0-1.29c0-4.65,0-4.72,4.55-4.83,1.74-.05,2.23-.76,2.18-2.35-.08-2.32,0-4.65,0-7-.06-1.73.54-2.57,2.35-2.5,2.06.07,4.13,0,6.19,0,1.53,0,2.17.65,2.14,2.18,0,2.49.05,5,0,7.48,0,1.56.61,2.16,2.15,2.1,2.15-.07,4.3,0,6.45,0,1.18,0,1.62.45,1.74,1.65.74,7.36.66,7.48-6.64,7.48-3.69,0-3.69,0-3.69,3.66,0,5.16,0,10.31,0,15.47.05,4.38,2.45,6.37,6.83,5.78,3.43-.46,3.43-.46,3.43,3,0,6.22,0,6.19-6.25,6.22a21.6,21.6,0,0,1-7.1-1.1,10.58,10.58,0,0,1-7.59-10.49c0-3.27,0-6.54,0-9.81Z"/>
        <path d="M398.74,52.66a13.37,13.37,0,0,1,12-5.83c1.69,0,2.57.52,2.5,2.37-.09,2.4-.09,4.82,0,7.23.07,1.73-.65,2-2.18,1.67a10.6,10.6,0,0,0-3.31-.33c-6.42.52-9,3.31-9,9.84,0,6.71-.07,13.43,0,20.14,0,2-.66,2.83-2.67,2.72a51.57,51.57,0,0,0-5.42,0c-2.08.13-2.63-.83-2.62-2.77q.09-18.72,0-37.44c0-2.08.61-3,2.8-2.87a32.06,32.06,0,0,0,4.9,0c2.18-.18,3.3.54,3,2.88C398.68,50.86,398.74,51.47,398.74,52.66Z"/>
      </g>
    </g>
  </g>
</svg>
